<mxfile host="app.diagrams.net" agent="Mozilla/5.0 (Macintosh; Intel Mac OS X 10_15_7) AppleWebKit/537.36 (KHTML, like Gecko) Chrome/127.0.0.0 Safari/537.36" version="24.7.7">
  <diagram name="Page-1" id="jEW9U_bXJYBnuXSac5j7">
    <mxGraphModel dx="371" dy="205" grid="1" gridSize="10" guides="1" tooltips="1" connect="1" arrows="1" fold="1" page="1" pageScale="1" pageWidth="1169" pageHeight="827" math="0" shadow="0">
      <root>
        <mxCell id="0" />
        <mxCell id="1" parent="0" />
        <mxCell id="Z6GeiyVnoEUKx5BJEDNn-1" value="&lt;font style=&quot;font-size: 11px;&quot;&gt;Identify a relevant problem&lt;/font&gt;" style="whiteSpace=wrap;html=1;aspect=fixed;" parent="1" vertex="1">
          <mxGeometry x="130" y="100" width="80" height="80" as="geometry" />
        </mxCell>
        <mxCell id="Z6GeiyVnoEUKx5BJEDNn-2" value="&lt;font style=&quot;font-size: 11px;&quot;&gt;Define a solution or improvement&lt;/font&gt;" style="whiteSpace=wrap;html=1;aspect=fixed;" parent="1" vertex="1">
          <mxGeometry x="240" y="100" width="80" height="80" as="geometry" />
        </mxCell>
        <mxCell id="Z6GeiyVnoEUKx5BJEDNn-4" value="&lt;font style=&quot;font-size: 11px;&quot;&gt;Design &amp;amp; Development&lt;/font&gt;" style="whiteSpace=wrap;html=1;aspect=fixed;" parent="1" vertex="1">
          <mxGeometry x="350" y="100" width="80" height="80" as="geometry" />
        </mxCell>
        <mxCell id="Z6GeiyVnoEUKx5BJEDNn-5" value="&lt;font style=&quot;font-size: 11px;&quot;&gt;Demonstration&lt;/font&gt;" style="whiteSpace=wrap;html=1;aspect=fixed;" parent="1" vertex="1">
          <mxGeometry x="460" y="100" width="80" height="80" as="geometry" />
        </mxCell>
        <mxCell id="Z6GeiyVnoEUKx5BJEDNn-6" value="&lt;font style=&quot;font-size: 11px;&quot;&gt;Evaluation&lt;/font&gt;" style="whiteSpace=wrap;html=1;aspect=fixed;" parent="1" vertex="1">
          <mxGeometry x="570" y="100" width="80" height="80" as="geometry" />
        </mxCell>
        <mxCell id="Z6GeiyVnoEUKx5BJEDNn-7" value="&lt;font style=&quot;font-size: 11px;&quot;&gt;Communication&lt;/font&gt;" style="whiteSpace=wrap;html=1;aspect=fixed;" parent="1" vertex="1">
          <mxGeometry x="680" y="100" width="80" height="80" as="geometry" />
        </mxCell>
        <mxCell id="Z6GeiyVnoEUKx5BJEDNn-9" value="" style="endArrow=classic;html=1;rounded=0;" parent="1" edge="1">
          <mxGeometry width="50" height="50" relative="1" as="geometry">
            <mxPoint x="210" y="110" as="sourcePoint" />
            <mxPoint x="240" y="110" as="targetPoint" />
          </mxGeometry>
        </mxCell>
        <mxCell id="Z6GeiyVnoEUKx5BJEDNn-10" value="" style="endArrow=classic;html=1;rounded=0;" parent="1" edge="1">
          <mxGeometry width="50" height="50" relative="1" as="geometry">
            <mxPoint x="320" y="110" as="sourcePoint" />
            <mxPoint x="350" y="110" as="targetPoint" />
          </mxGeometry>
        </mxCell>
        <mxCell id="Z6GeiyVnoEUKx5BJEDNn-11" value="" style="endArrow=classic;html=1;rounded=0;" parent="1" edge="1">
          <mxGeometry width="50" height="50" relative="1" as="geometry">
            <mxPoint x="430" y="110" as="sourcePoint" />
            <mxPoint x="460" y="110" as="targetPoint" />
          </mxGeometry>
        </mxCell>
        <mxCell id="Z6GeiyVnoEUKx5BJEDNn-12" value="" style="endArrow=classic;html=1;rounded=0;" parent="1" edge="1">
          <mxGeometry width="50" height="50" relative="1" as="geometry">
            <mxPoint x="540" y="110" as="sourcePoint" />
            <mxPoint x="570" y="110" as="targetPoint" />
          </mxGeometry>
        </mxCell>
        <mxCell id="Z6GeiyVnoEUKx5BJEDNn-14" value="" style="endArrow=classic;html=1;rounded=0;" parent="1" edge="1">
          <mxGeometry width="50" height="50" relative="1" as="geometry">
            <mxPoint x="650" y="110" as="sourcePoint" />
            <mxPoint x="680" y="110" as="targetPoint" />
          </mxGeometry>
        </mxCell>
        <mxCell id="Z6GeiyVnoEUKx5BJEDNn-17" value="" style="endArrow=none;html=1;rounded=0;" parent="1" edge="1">
          <mxGeometry width="50" height="50" relative="1" as="geometry">
            <mxPoint x="609.5" y="100" as="sourcePoint" />
            <mxPoint x="610" y="70" as="targetPoint" />
          </mxGeometry>
        </mxCell>
        <mxCell id="Z6GeiyVnoEUKx5BJEDNn-18" value="" style="endArrow=none;html=1;rounded=0;" parent="1" edge="1">
          <mxGeometry width="50" height="50" relative="1" as="geometry">
            <mxPoint x="390" y="70" as="sourcePoint" />
            <mxPoint x="610" y="70" as="targetPoint" />
          </mxGeometry>
        </mxCell>
        <mxCell id="Z6GeiyVnoEUKx5BJEDNn-19" value="" style="endArrow=classic;html=1;rounded=0;" parent="1" edge="1">
          <mxGeometry width="50" height="50" relative="1" as="geometry">
            <mxPoint x="390" y="70" as="sourcePoint" />
            <mxPoint x="390" y="100" as="targetPoint" />
          </mxGeometry>
        </mxCell>
        <mxCell id="Z6GeiyVnoEUKx5BJEDNn-20" value="Process Iteration" style="text;html=1;align=center;verticalAlign=middle;whiteSpace=wrap;rounded=0;" parent="1" vertex="1">
          <mxGeometry x="440" y="40" width="120" height="30" as="geometry" />
        </mxCell>
        <mxCell id="Z6GeiyVnoEUKx5BJEDNn-21" value="Problem-Centered Initiation" style="ellipse;whiteSpace=wrap;html=1;" parent="1" vertex="1">
          <mxGeometry x="130" y="210" width="80" height="60" as="geometry" />
        </mxCell>
        <mxCell id="Z6GeiyVnoEUKx5BJEDNn-22" value="" style="endArrow=classic;html=1;rounded=0;" parent="1" edge="1">
          <mxGeometry width="50" height="50" relative="1" as="geometry">
            <mxPoint x="169.5" y="180" as="sourcePoint" />
            <mxPoint x="170" y="210" as="targetPoint" />
          </mxGeometry>
        </mxCell>
        <mxCell id="Z6GeiyVnoEUKx5BJEDNn-23" value="" style="ellipse;whiteSpace=wrap;html=1;" parent="1" vertex="1">
          <mxGeometry x="240" y="210" width="80" height="60" as="geometry" />
        </mxCell>
        <mxCell id="Z6GeiyVnoEUKx5BJEDNn-24" value="" style="ellipse;whiteSpace=wrap;html=1;" parent="1" vertex="1">
          <mxGeometry x="350" y="210" width="80" height="60" as="geometry" />
        </mxCell>
        <mxCell id="Z6GeiyVnoEUKx5BJEDNn-25" value="" style="ellipse;whiteSpace=wrap;html=1;" parent="1" vertex="1">
          <mxGeometry x="460" y="210" width="80" height="60" as="geometry" />
        </mxCell>
        <mxCell id="Z6GeiyVnoEUKx5BJEDNn-26" value="" style="endArrow=classic;html=1;rounded=0;" parent="1" edge="1">
          <mxGeometry width="50" height="50" relative="1" as="geometry">
            <mxPoint x="279.5" y="180" as="sourcePoint" />
            <mxPoint x="280" y="210" as="targetPoint" />
          </mxGeometry>
        </mxCell>
        <mxCell id="Z6GeiyVnoEUKx5BJEDNn-27" value="" style="endArrow=classic;html=1;rounded=0;" parent="1" edge="1">
          <mxGeometry width="50" height="50" relative="1" as="geometry">
            <mxPoint x="389.5" y="180" as="sourcePoint" />
            <mxPoint x="390" y="210" as="targetPoint" />
          </mxGeometry>
        </mxCell>
        <mxCell id="Z6GeiyVnoEUKx5BJEDNn-28" value="" style="endArrow=classic;html=1;rounded=0;" parent="1" edge="1">
          <mxGeometry width="50" height="50" relative="1" as="geometry">
            <mxPoint x="499.5" y="180" as="sourcePoint" />
            <mxPoint x="500" y="210" as="targetPoint" />
          </mxGeometry>
        </mxCell>
        <mxCell id="Z6GeiyVnoEUKx5BJEDNn-29" value="" style="rounded=1;whiteSpace=wrap;html=1;fillColor=none;" parent="1" vertex="1">
          <mxGeometry x="120" y="200" width="440" height="80" as="geometry" />
        </mxCell>
        <mxCell id="Z6GeiyVnoEUKx5BJEDNn-30" value="" style="curved=1;endArrow=classic;html=1;rounded=0;exitX=0;exitY=0.5;exitDx=0;exitDy=0;entryX=0;entryY=0.5;entryDx=0;entryDy=0;" parent="1" source="Z6GeiyVnoEUKx5BJEDNn-29" target="Z6GeiyVnoEUKx5BJEDNn-1" edge="1">
          <mxGeometry width="50" height="50" relative="1" as="geometry">
            <mxPoint x="60" y="250" as="sourcePoint" />
            <mxPoint x="110" y="200" as="targetPoint" />
            <Array as="points">
              <mxPoint x="90" y="240" />
              <mxPoint x="100" y="140" />
            </Array>
          </mxGeometry>
        </mxCell>
        <mxCell id="5tsD0YzkWhCfS1TCN_z1-1" value="Phase 1" style="text;html=1;align=center;verticalAlign=middle;whiteSpace=wrap;rounded=0;fontStyle=4" parent="1" vertex="1">
          <mxGeometry x="130" y="105" width="80" height="10" as="geometry" />
        </mxCell>
        <mxCell id="5tsD0YzkWhCfS1TCN_z1-3" value="Phase 2" style="text;html=1;align=center;verticalAlign=middle;whiteSpace=wrap;rounded=0;fontStyle=4" parent="1" vertex="1">
          <mxGeometry x="240" y="105" width="80" height="10" as="geometry" />
        </mxCell>
        <mxCell id="5tsD0YzkWhCfS1TCN_z1-4" value="Phase 3" style="text;html=1;align=center;verticalAlign=middle;whiteSpace=wrap;rounded=0;fontStyle=4" parent="1" vertex="1">
          <mxGeometry x="350" y="105" width="80" height="10" as="geometry" />
        </mxCell>
        <mxCell id="5tsD0YzkWhCfS1TCN_z1-5" value="Phase 4" style="text;html=1;align=center;verticalAlign=middle;whiteSpace=wrap;rounded=0;fontStyle=4" parent="1" vertex="1">
          <mxGeometry x="460" y="105" width="80" height="10" as="geometry" />
        </mxCell>
        <mxCell id="5tsD0YzkWhCfS1TCN_z1-6" value="Phase 5&lt;span style=&quot;color: rgba(0, 0, 0, 0); font-family: monospace; font-size: 0px; text-align: start; text-wrap: nowrap;&quot;&gt;%3CmxGraphModel%3E%3Croot%3E%3CmxCell%20id%3D%220%22%2F%3E%3CmxCell%20id%3D%221%22%20parent%3D%220%22%2F%3E%3CmxCell%20id%3D%222%22%20value%3D%22Phase%203%22%20style%3D%22text%3Bhtml%3D1%3Balign%3Dcenter%3BverticalAlign%3Dmiddle%3BwhiteSpace%3Dwrap%3Brounded%3D0%3B%22%20vertex%3D%221%22%20parent%3D%221%22%3E%3CmxGeometry%20x%3D%22350%22%20y%3D%22100%22%20width%3D%2280%22%20height%3D%2210%22%20as%3D%22geometry%22%2F%3E%3C%2FmxCell%3E%3C%2Froot%3E%3C%2FmxGraphModel%3E&lt;/span&gt;" style="text;html=1;align=center;verticalAlign=middle;whiteSpace=wrap;rounded=0;fontStyle=4" parent="1" vertex="1">
          <mxGeometry x="570" y="105" width="80" height="10" as="geometry" />
        </mxCell>
        <mxCell id="5tsD0YzkWhCfS1TCN_z1-7" value="Phase 6" style="text;html=1;align=center;verticalAlign=middle;whiteSpace=wrap;rounded=0;fontStyle=4" parent="1" vertex="1">
          <mxGeometry x="680" y="105" width="80" height="10" as="geometry" />
        </mxCell>
      </root>
    </mxGraphModel>
  </diagram>
</mxfile>
